<svg width="92" height="99" viewBox="0 0 92 99" fill="none" xmlns="http://www.w3.org/2000/svg">
<path fill-rule="evenodd" clip-rule="evenodd" d="M24.5353 33.0398C28.6664 27.4564 34.5974 24.2733 41.3221 22.5245C49.5614 20.3819 58.3801 17.8453 65.6017 22.3604C74.5675 27.966 83.1985 37.3402 81.7625 47.8087C80.3615 58.0217 67.7234 60.7884 59.481 66.9797C50.1378 73.9978 42.9904 88.4982 31.7147 85.4017C20.3976 82.2939 18.6448 66.9498 17.0513 55.3279C15.931 47.1567 19.6312 39.6679 24.5353 33.0398Z" fill="#25384F"/>
<path d="M61.375 85.0909H46.375C44.3039 85.0909 42.625 83.3815 42.625 81.2727V54.5455C42.625 52.4368 44.3039 50.7273 46.375 50.7273H72.625C74.6961 50.7273 76.375 52.4368 76.375 54.5455V69.8182C76.3742 69.8403 76.3704 69.8621 76.3637 69.8831C76.3584 69.9005 76.3546 69.9184 76.3525 69.9366C76.3419 70.1049 76.3098 70.2711 76.2569 70.431L76.24 70.4826C76.2274 70.5257 76.2117 70.5678 76.1931 70.6086C76.1023 70.8166 75.9753 71.0061 75.8181 71.1679L62.6931 84.5316C62.3434 84.8878 61.8696 85.0888 61.375 85.0909ZM46.375 54.5455V81.2727H59.5V69.8182C59.5 68.7638 60.3395 67.9091 61.375 67.9091H72.625V54.5455H46.375ZM63.25 71.7273V78.5752L69.9738 71.7273H63.25Z" fill="#C67366"/>
<path d="M38.3333 51.25H7.66665C5.54955 51.25 3.83331 49.5338 3.83331 47.4167V20.5833C3.83331 18.4662 5.54955 16.75 7.66665 16.75H19.1666C19.6749 16.75 20.1624 16.9521 20.5217 17.3116L23.7935 20.5833H38.3333C40.4504 20.5833 42.1666 22.2996 42.1666 24.4167V47.4167C42.1666 49.5338 40.4504 51.25 38.3333 51.25ZM7.66665 24.4167V47.4167H38.3333V24.4167H7.66665ZM24.9166 43.5833H21.0833V37.8333H15.3333V34H21.0833V28.25H24.9166V34H30.6666V37.8333H24.9166V43.5833Z" fill="#C67366"/>
<path d="M84.3333 37.6488H53.6666C51.5496 37.6488 49.8333 35.9632 49.8333 33.884V11.1309C49.9226 9.11583 51.613 7.52788 53.6666 7.52979H84.3333C86.4504 7.52979 88.1666 9.21538 88.1666 11.2947V33.884C88.1666 35.9632 86.4504 37.6488 84.3333 37.6488ZM53.6666 14.8111V33.884H84.3333V14.8111L69 24.8482L53.6666 14.8111ZM55.2 11.2947L69 20.3304L82.8 11.2947H55.2Z" fill="#C67366"/>
</svg>
