<svg width="87" height="92" viewBox="0 0 87 92" fill="none" xmlns="http://www.w3.org/2000/svg">
<path fill-rule="evenodd" clip-rule="evenodd" d="M21.5353 26.0398C25.6664 20.4564 31.5974 17.2733 38.3221 15.5245C46.5614 13.3819 55.3801 10.8453 62.6017 15.3604C71.5675 20.966 80.1985 30.3402 78.7625 40.8087C77.3615 51.0217 64.7234 53.7884 56.481 59.9797C47.1378 66.9978 39.9904 81.4982 28.7147 78.4017C17.3976 75.2939 15.6448 59.9498 14.0513 48.3279C12.9309 40.1567 16.6312 32.6679 21.5353 26.0398Z" fill="#25384F"/>
<path d="M61.6667 67.125H24.3334C21.756 67.125 19.6667 65.073 19.6667 62.5417V30.4583C19.6667 27.927 21.756 25.875 24.3334 25.875H61.6667C64.244 25.875 66.3334 27.927 66.3334 30.4583V62.5417C66.3334 65.073 64.244 67.125 61.6667 67.125ZM24.3334 35.0417V62.5417H61.6667V35.0417H24.3334Z" fill="#C67366"/>
</svg>
