<svg width="87" height="92" viewBox="0 0 87 92" fill="none" xmlns="http://www.w3.org/2000/svg">
<path fill-rule="evenodd" clip-rule="evenodd" d="M21.5353 26.0398C25.6664 20.4564 31.5974 17.2733 38.3221 15.5245C46.5614 13.3819 55.3801 10.8453 62.6017 15.3604C71.5675 20.966 80.1985 30.3402 78.7625 40.8087C77.3615 51.0217 64.7234 53.7884 56.481 59.9797C47.1378 66.9978 39.9904 81.4982 28.7147 78.4017C17.3976 75.2939 15.6448 59.9498 14.0513 48.3279C12.931 40.1567 16.6312 32.6679 21.5353 26.0398Z" fill="#25384F"/>
<path d="M59.5417 69.3333H27.4584C26.1927 69.3333 25.1667 68.2887 25.1667 67V44.4997C25.2022 43.9279 25.4409 43.3888 25.8381 42.983L41.8798 26.6497C42.3097 26.2115 42.8929 25.9653 43.5012 25.9653C44.1094 25.9653 44.6927 26.2115 45.1225 26.6497L61.1642 42.983C61.5944 43.42 61.8354 44.0139 61.8334 44.6327V67C61.8334 68.2887 60.8073 69.3333 59.5417 69.3333ZM42.0746 58.775C42.5788 59.195 43.0669 59.6057 43.5 60C43.9584 59.587 44.4717 59.16 45.0171 58.7073L45.1477 58.5977C47.8198 56.3787 51.1473 53.6183 51.1473 50.1977C51.1469 49.069 50.7004 47.9881 49.9085 47.1984C49.1165 46.4087 48.0458 45.9768 46.9375 46C45.6262 45.9964 44.3757 46.5626 43.5 47.5563C42.6245 46.5623 41.3739 45.9961 40.0625 46C38.9547 45.9781 37.8847 46.4109 37.0937 47.2009C36.3027 47.9909 35.8571 49.0718 35.8573 50.2C35.8573 53.609 39.1573 56.3507 41.8156 58.5533H41.8134H41.8248L41.8661 58.5883H41.8775L41.8959 58.6327L42.015 58.733L42.0448 58.7563H42.0586L42.0746 58.775Z" fill="#C67366"/>
</svg>
