<svg width="87" height="92" viewBox="0 0 87 92" fill="none" xmlns="http://www.w3.org/2000/svg">
<path fill-rule="evenodd" clip-rule="evenodd" d="M21.5353 26.0398C25.6664 20.4564 31.5974 17.2733 38.3221 15.5245C46.5614 13.3819 55.3801 10.8453 62.6017 15.3604C71.5675 20.966 80.1985 30.3402 78.7625 40.8087C77.3615 51.0217 64.7234 53.7884 56.481 59.9797C47.1378 66.9978 39.9904 81.4982 28.7147 78.4017C17.3976 75.2939 15.6448 59.9498 14.0513 48.3279C12.931 40.1567 16.6312 32.6679 21.5353 26.0398Z" fill="#25384F"/>
<path d="M59.5417 69.4166H27.4583C24.927 69.4166 22.875 67.3646 22.875 64.8333V32.7499C22.875 30.2186 24.927 28.1666 27.4583 28.1666H32.0417V23.5833H36.625V28.1666H50.375V23.5833H54.9583V28.1666H59.5417C62.073 28.1666 64.125 30.2186 64.125 32.7499V64.8333C64.125 67.3646 62.073 69.4166 59.5417 69.4166ZM27.4583 41.9166V64.8333H59.5417V41.9166H27.4583ZM27.4583 32.7499V37.3333H59.5417V32.7499H27.4583ZM38.4583 62.5416H34.3333V58.4166L43.9583 48.8145L48.0833 52.9395L38.4583 62.5416ZM49.5156 51.5003L45.3906 47.3753L48.5417 44.238L52.6667 48.363L49.5271 51.5026L49.5156 51.5003Z" fill="#C67366"/>
</svg>
