<svg width="87" height="92" viewBox="0 0 87 92" fill="none" xmlns="http://www.w3.org/2000/svg">
<path fill-rule="evenodd" clip-rule="evenodd" d="M21.5353 26.0398C25.6664 20.4564 31.5974 17.2733 38.3221 15.5245C46.5614 13.3819 55.3801 10.8453 62.6017 15.3604C71.5675 20.966 80.1985 30.3402 78.7625 40.8087C77.3615 51.0217 64.7234 53.7884 56.481 59.9797C47.1378 66.9978 39.9904 81.4982 28.7147 78.4017C17.3976 75.2939 15.6448 59.9498 14.0513 48.3279C12.931 40.1567 16.6312 32.6679 21.5353 26.0398Z" fill="#25384F"/>
<path d="M57.25 65.8335H22.875C22.2668 65.8396 21.6819 65.5997 21.2533 65.168C20.8247 64.7364 20.5889 64.1498 20.5994 63.5417H20.5834V31.4583C20.5834 28.927 22.6354 26.875 25.1667 26.875H38.9167C39.4286 26.8755 39.9255 27.0473 40.3284 27.3631L45.5625 31.4583H57.25C59.7813 31.4583 61.8334 33.5104 61.8334 36.0417V45.2083H64.125C64.8954 45.2084 65.6141 45.5955 66.0381 46.2386C66.4621 46.8818 66.5346 47.6949 66.2311 48.4029L59.3561 64.4446C58.995 65.287 58.1666 65.8335 57.25 65.8335ZM31.2625 49.7917L26.3515 61.25H55.7398L60.6509 49.7917H31.2625ZM25.1667 36.0417V52.3812L27.644 46.5971C28.0051 45.7547 28.8335 45.2084 29.75 45.2083H57.25V36.0417H25.1667Z" fill="#C67366"/>
</svg>
